<?xml version="1.0" standalone="yes"?>
<svg xmlns="http://www.w3.org/2000/svg" width="512" height="512">
<path style="fill:#ffffff; stroke:none;" d="M0 0L0 512L512 512L512 0L0 0z"/>
<path style="fill:#77bd21; stroke:none;" d="M76 58L76 313L77 313C77.0374 256.572 125.12 206.435 178 193.884C207.896 186.789 240.477 190 271 190C327.235 190 390.623 199.128 418 257C459.943 194.648 426.465 99.5766 360 70.4252C324.668 54.9288 286.681 58 249 58L76 58z"/>
<path style="fill:#9bcf5c; stroke:none;" d="M310 58L310 59L317 59L310 58M322 59L322 60L325 60L322 59M328 60L328 61L331 61L328 60M333.667 61.3333L334.333 61.6667L333.667 61.3333M337.667 62.3333L338.333 62.6667L337.667 62.3333M341.667 63.3333L342.333 63.6667L341.667 63.3333M344.667 64.3333L345.333 64.6667L344.667 64.3333M347.667 65.3333L348.333 65.6667L347.667 65.3333M350 66L351 67L350 66M353 67L354 68L353 67M355 68L356 69L355 68M357 69L358 70L357 69M360 70L361 71L360 70M362 71L363 72L362 71M364 72L365 73L364 72M366 73L367 74L366 73M367 74L368 75L367 74M369 75L370 76L369 75M371 76L372 77L371 76M374 78L375 79L374 78M376 79L377 80L376 79M377 80L378 81L377 80M379 81L380 82L379 81M380 82L381 83L380 82M383 84L384 85L383 84M384 85L385 86L384 85M385 86L386 87L385 86M388 88L389 89L388 88M389 89L390 90L389 89M390 90L391 91L390 90M391 91L392 92L391 91M392 92L393 93L392 92M393 93L394 94L393 93M400 100L401 101L400 100M401 101L402 102L401 101M402 102L403 103L402 102M403 103L404 104L403 103M404 104L405 105L404 104M405 105L406 106L405 105M407 108L408 109L407 108M408 109L409 110L408 109M409 110L410 111L409 110M410 112L411 113L410 112M411 113L412 114L411 113M413 116L414 117L413 116M415 119L416 120L415 119M416 121L417 122L416 121M417 122L418 123L417 122M418 124L419 125L418 124M419 126L420 127L419 126M420 128L421 129L420 128M421 130L422 131L421 130M422 132L423 133L422 132M423 134L424 135L423 134M424 136L425 137L424 136M425 138L426 139L425 138M426 141L427 142L426 141M427 143L428 144L427 143M428 146L429 147L428 146M429 149L430 150L429 149M430.333 152.667L430.667 153.333L430.333 152.667M431.333 155.667L431.667 156.333L431.333 155.667M432 159L432 162L433 162L432 159M433 164L433 167L434 167L433 164M434 169L434 173L435 173L434 169M435 177L435 185L436 185L435 177z"/>
<path style="fill:#027e3d; stroke:none;" d="M436 454L436 357C436 334.212 437.2 311.294 431.625 289C428.56 276.744 423.392 264.957 417.127 254C411.958 244.959 405.294 236.407 397.985 229.004C356.244 186.723 301.706 190 247 190C190.85 190 137.369 194.045 101.428 244C44.2415 323.486 92.6079 444.115 193 453.83C219.492 456.394 247.375 454 274 454L436 454z"/>
<path style="fill:#9bcf5c; stroke:none;" d="M435 196L435 203L436 203L435 196M434 207L434 211L435 211L434 207M433 214L433 217L434 217L433 214M432.333 219.667L432.667 220.333L432.333 219.667M431.333 223.667L431.667 224.333L431.333 223.667M430.333 227.667L430.667 228.333L430.333 227.667M429.333 230.667L429.667 231.333L429.333 230.667M428.333 233.667L428.667 234.333L428.333 233.667M427 236L428 237L427 236M426 239L427 240L426 239M425 241L426 242L425 241M424.333 243.667L424.667 244.333L424.333 243.667M423 246L424 247L423 246M422 248L423 249L422 248M421 250L422 251L421 250M420 252L421 253L420 252M419 254L420 255L419 254z"/>
<path style="fill:#77bd21; stroke:none;" d="M419 258L420 259L419 258M420 260L421 261L420 260M421 262L422 263L421 262M422 264L423 265L422 264M423 266L424 267L423 266z"/>
<path style="fill:#9ac3b0; stroke:none;" d="M424 268L425 269L424 268M425 270L426 271L425 270M426 272L427 273L426 272z"/>
<path style="fill:#77bd21; stroke:none;" d="M426 273L427 274L426 273z"/>
<path style="fill:#9ac3b0; stroke:none;" d="M427 275L428 276L427 275M428 278L429 279L428 278M429 281L430 282L429 281M430 284L431 285L430 284M431 287L432 288L431 287z"/>
<path style="fill:#77bd21; stroke:none;" d="M431 288L432 289L431 288z"/>
<path style="fill:#9ac3b0; stroke:none;" d="M432.333 291.667L432.667 292.333L432.333 291.667M433.333 295.667L433.667 296.333L433.333 295.667z"/>
<path style="fill:#77bd21; stroke:none;" d="M433 297L434 298L433 297z"/>
<path style="fill:#9ac3b0; stroke:none;" d="M434.333 301.667L434.667 302.333L434.333 301.667z"/>
<path style="fill:#77bd21; stroke:none;" d="M434 303L435 304L434 303z"/>
<path style="fill:#9ac3b0; stroke:none;" d="M435 308L435 312L436 312L435 308z"/>
<path style="fill:#77bd21; stroke:none;" d="M435.333 312.667L435.667 313.333L435.333 312.667M76.3333 331.667L76.6667 332.333L76.3333 331.667z"/>
<path style="fill:#9ac3b0; stroke:none;" d="M76 333L76 337L77 337L76 333z"/>
<path style="fill:#77bd21; stroke:none;" d="M77 341L78 342L77 341z"/>
<path style="fill:#9ac3b0; stroke:none;" d="M77.3333 342.667L77.6667 343.333L77.3333 342.667z"/>
<path style="fill:#77bd21; stroke:none;" d="M78 347L79 348L78 347z"/>
<path style="fill:#9ac3b0; stroke:none;" d="M78.3333 348.667L78.6667 349.333L78.3333 348.667M79.3333 352.667L79.6667 353.333L79.3333 352.667z"/>
<path style="fill:#77bd21; stroke:none;" d="M80 356L81 357L80 356z"/>
<path style="fill:#9ac3b0; stroke:none;" d="M80 357L81 358L80 357M81 360L82 361L81 360M82 363L83 364L82 363M83 366L84 367L83 366M84 369L85 370L84 369z"/>
<path style="fill:#77bd21; stroke:none;" d="M85 371L86 372L85 371z"/>
<path style="fill:#9ac3b0; stroke:none;" d="M85 372L86 373L85 372M86 374L87 375L86 374M87 376L88 377L87 376z"/>
<path style="fill:#77bd21; stroke:none;" d="M88 378L89 379L88 378M89 380L90 381L89 380M90 382L91 383L90 382M91 384L92 385L91 384M92 386L93 387L92 386z"/>
<path style="fill:#9ac3b0; stroke:none;" d="M93 388L94 389L93 388M94 390L95 391L94 390z"/>
<path style="fill:#77bd21; stroke:none;" d="M95 391L96 392L95 391z"/>
<path style="fill:#9ac3b0; stroke:none;" d="M96 393L97 394L96 393M98 396L99 397L98 396M100 399L101 400L100 399z"/>
<path style="fill:#77bd21; stroke:none;" d="M101 400L102 401L101 400z"/>
<path style="fill:#9ac3b0; stroke:none;" d="M102 402L103 403L102 402M103 403L104 404L103 403z"/>
<path style="fill:#77bd21; stroke:none;" d="M104 404L105 405L104 404z"/>
<path style="fill:#9ac3b0; stroke:none;" d="M106 407L107 408L106 407M107 408L108 409L107 408M108 409L109 410L108 409M109 410L110 411L109 410M110 411L111 412L110 411z"/>
<path style="fill:#77bd21; stroke:none;" d="M111 412L112 413L111 412M118 419L119 420L118 419z"/>
<path style="fill:#9ac3b0; stroke:none;" d="M119 420L120 421L119 420M120 421L121 422L120 421M121 422L122 423L121 422M122 423L123 424L122 423M123 424L124 425L123 424z"/>
<path style="fill:#77bd21; stroke:none;" d="M126 426L127 427L126 426z"/>
<path style="fill:#9ac3b0; stroke:none;" d="M127 427L128 428L127 427M128 428L129 429L128 428z"/>
<path style="fill:#77bd21; stroke:none;" d="M130 429L131 430L130 429z"/>
<path style="fill:#9ac3b0; stroke:none;" d="M131 430L132 431L131 430M134 432L135 433L134 432M137 434L138 435L137 434z"/>
<path style="fill:#77bd21; stroke:none;" d="M139 435L140 436L139 435z"/>
<path style="fill:#9ac3b0; stroke:none;" d="M140 436L141 437L140 436M142 437L143 438L142 437z"/>
<path style="fill:#77bd21; stroke:none;" d="M144 438L145 439L144 438M146 439L147 440L146 439M148 440L149 441L148 440M150 441L151 442L150 441M152 442L153 443L152 442z"/>
<path style="fill:#9ac3b0; stroke:none;" d="M154 443L155 444L154 443M156 444L157 445L156 444M158 445L159 446L158 445z"/>
<path style="fill:#77bd21; stroke:none;" d="M159 445L160 446L159 445z"/>
<path style="fill:#9ac3b0; stroke:none;" d="M161 446L162 447L161 446M164 447L165 448L164 447M167 448L168 449L167 448M170 449L171 450L170 449z"/>
<path style="fill:#77bd21; stroke:none;" d="M171 449L172 450L171 449z"/>
<path style="fill:#9ac3b0; stroke:none;" d="M173.667 450.333L174.333 450.667L173.667 450.333M177.667 451.333L178.333 451.667L177.667 451.333z"/>
<path style="fill:#77bd21; stroke:none;" d="M179 451L180 452L179 451z"/>
<path style="fill:#9ac3b0; stroke:none;" d="M182.667 452.333L183.333 452.667L182.667 452.333z"/>
<path style="fill:#77bd21; stroke:none;" d="M184 452L185 453L184 452z"/>
<path style="fill:#9ac3b0; stroke:none;" d="M187 453L187 454L190 454L187 453z"/>
<path style="fill:#77bd21; stroke:none;" d="M190 453L191 454L190 453z"/>
<path style="fill:#9ac3b0; stroke:none;" d="M198 454L198 455L436 455L414 454L366 454L198 454z"/>
</svg>
